<svg width="512" height="512" viewBox="0 0 512 512" fill="none" xmlns="http://www.w3.org/2000/svg">
<rect width="512" height="512" fill="#FF7E00"/>
<path d="M322.002 291.154C321.923 290.445 321.779 289.736 321.779 289.031C321.764 272.429 321.757 255.826 321.772 239.22C321.782 228.503 329.1 221.082 339.791 221.053C356.933 221.006 374.076 221.006 391.221 221.053C401.722 221.085 409.032 228.5 409.04 239.004C409.054 256.388 409.058 273.767 409.061 291.15H392.153C392.07 290.384 391.919 289.618 391.919 288.851C391.905 273.76 391.916 258.665 391.905 243.573C391.905 237.583 388.26 233.867 382.335 233.853C371.014 233.828 359.696 233.831 348.375 233.853C342.82 233.864 338.921 237.623 338.903 243.178C338.852 259.168 338.899 275.159 338.903 291.15H321.995L322.002 291.154Z" fill="white"/>
<path d="M73.7746 291.154C73.789 287.438 73.8538 283.721 73.789 280.009C73.7674 278.634 74.1596 278.095 75.6022 278.098C87.2293 278.145 98.86 278.138 110.487 278.142C112.523 278.142 114.567 278.185 116.599 278.084C121.28 277.857 124.697 274.361 124.543 270.036C124.388 265.655 120.859 262.352 116.211 262.338C107.278 262.309 98.3491 262.349 89.4166 262.32C81.5129 262.295 75.1921 257.701 72.7242 250.243C72.5191 249.621 72.2601 248.973 72.2493 248.333C72.1953 243.969 71.6845 239.526 72.3033 235.252C73.4868 227.039 80.5775 221.146 88.8985 221.092C105.321 220.985 121.747 221.056 138.17 221.021C139.4 221.021 139.864 221.38 139.839 222.657C139.771 226.298 139.814 229.942 139.814 233.849C138.904 233.849 138.213 233.849 137.519 233.849C124.032 233.849 110.545 233.842 97.0576 233.86C93.7479 233.864 91.2945 235.414 89.8734 238.375C88.4416 241.368 88.9201 244.242 90.9923 246.782C92.6075 248.761 94.802 249.567 97.349 249.559C106.102 249.538 114.851 249.549 123.604 249.552C134.18 249.559 141.641 256.945 141.67 267.497C141.677 270.486 141.832 273.53 141.354 276.454C140.105 284.106 134.594 289.369 126.913 290.718C126.456 290.798 126.017 291.003 125.571 291.15H73.7746V291.154Z" fill="white"/>
<path d="M238.539 291.154C238.528 273.896 238.55 256.643 238.488 239.386C238.463 232.317 241.176 226.74 247.41 223.319C249.641 222.096 252.371 221.218 254.889 221.175C267.229 220.959 279.575 220.945 291.915 221.121C300.671 221.247 308.14 228.874 308.194 237.63C308.301 254.945 308.23 272.263 308.219 289.578C308.219 290.103 308.057 290.628 307.971 291.154H291.062C291.087 290.977 291.131 290.798 291.131 290.621C291.131 274.742 291.167 258.859 291.113 242.98C291.095 237.652 287.188 233.892 281.817 233.856C276.424 233.82 271.031 233.838 265.635 233.849C259.235 233.86 255.674 237.457 255.67 243.904C255.667 258.884 255.67 273.868 255.659 288.848C255.659 289.618 255.515 290.384 255.44 291.154H238.532H238.539Z" fill="white"/>
<path d="M171.268 291.154C170.358 290.909 169.451 290.636 168.534 290.42C160.781 288.592 155.237 281.732 155.219 273.756C155.183 256.794 155.223 239.832 155.18 222.869C155.18 221.477 155.543 220.984 156.986 221.01C161.479 221.089 165.976 221.1 170.469 221.01C172.023 220.977 172.358 221.56 172.354 222.992C172.311 238.094 172.318 253.2 172.336 268.306C172.343 273.17 174.88 276.746 179.056 277.771C180.15 278.037 181.312 278.102 182.442 278.109C187.597 278.145 192.752 278.145 197.904 278.12C204.21 278.087 207.764 274.49 207.768 268.133C207.779 253.268 207.768 238.403 207.772 223.539C207.772 221.879 208.571 221.048 210.171 221.046C214.427 221.046 218.683 221.092 222.939 221.02C224.352 220.995 224.96 221.341 224.957 222.902C224.91 239.925 224.989 256.945 224.899 273.968C224.856 282.448 218.56 289.463 210.2 290.729C209.682 290.808 209.182 291.013 208.674 291.161H171.261L171.268 291.154Z" fill="white"/>
<path d="M422.731 291.154C422.67 290.38 422.559 289.607 422.559 288.833C422.548 267.083 422.551 245.332 422.551 223.585C422.551 221.89 423.394 221.041 425.08 221.038C430.052 221.028 435.027 221.013 439.999 221.002V291.154H422.731Z" fill="white"/>
<path d="M356.899 291.154C356.895 277.26 356.913 263.367 356.859 249.473C356.852 247.905 357.183 247.271 358.928 247.322C363.414 247.455 367.911 247.386 372.401 247.351C373.455 247.343 374.056 247.487 374.052 248.782C374.016 262.496 374.03 276.21 374.02 289.923C374.02 290.333 373.883 290.74 373.811 291.15H356.903L356.899 291.154Z" fill="white"/>
</svg>
