<svg width="456" height="456" viewBox="0 0 456 456" fill="none" xmlns="http://www.w3.org/2000/svg">
<rect width="456" height="456" fill="#FF7E00"/>
<path d="M286.782 259.309C286.712 258.678 286.584 258.046 286.584 257.418C286.571 242.632 286.564 227.845 286.577 213.056C286.587 203.511 293.104 196.901 302.626 196.875C317.893 196.834 333.161 196.834 348.431 196.875C357.783 196.904 364.294 203.508 364.3 212.863C364.313 228.345 364.316 243.824 364.32 259.306H349.261C349.187 258.623 349.053 257.941 349.053 257.258C349.04 243.817 349.049 230.373 349.04 216.932C349.04 211.598 345.794 208.288 340.517 208.275C330.434 208.253 320.354 208.256 310.271 208.275C305.324 208.285 301.851 211.633 301.835 216.58C301.79 230.822 301.832 245.064 301.835 259.306H286.776L286.782 259.309Z" fill="white"/>
<path d="M65.7055 259.309C65.7184 255.999 65.776 252.689 65.7184 249.383C65.6991 248.159 66.0484 247.678 67.3332 247.681C77.6886 247.723 88.0472 247.717 98.4026 247.72C100.216 247.72 102.036 247.758 103.846 247.669C108.015 247.467 111.058 244.352 110.921 240.501C110.783 236.599 107.64 233.657 103.5 233.644C95.5446 233.619 87.5922 233.654 79.6366 233.628C72.5974 233.606 66.9679 229.515 64.77 222.873C64.5873 222.318 64.3566 221.742 64.347 221.171C64.299 217.285 63.844 213.328 64.3951 209.521C65.4492 202.207 71.7643 196.958 79.1752 196.91C93.8016 196.814 108.431 196.878 123.058 196.846C124.153 196.846 124.567 197.167 124.544 198.304C124.483 201.547 124.522 204.792 124.522 208.272C123.711 208.272 123.096 208.272 122.478 208.272C110.466 208.272 98.4538 208.265 86.442 208.281C83.4943 208.285 81.3091 209.666 80.0435 212.303C78.7683 214.968 79.1945 217.528 81.04 219.79C82.4786 221.553 84.433 222.27 86.7015 222.264C94.4969 222.245 102.289 222.254 110.084 222.257C119.504 222.264 126.149 228.842 126.175 238.239C126.181 240.902 126.319 243.612 125.893 246.217C124.781 253.032 119.873 257.72 113.032 258.921C112.625 258.992 112.234 259.174 111.837 259.306H65.7055V259.309Z" fill="white"/>
<path d="M212.449 259.309C212.44 243.939 212.459 228.573 212.404 213.203C212.382 206.907 214.798 201.941 220.35 198.894C222.337 197.804 224.769 197.023 227.012 196.984C238.001 196.792 248.998 196.779 259.987 196.936C267.786 197.048 274.438 203.841 274.486 211.639C274.582 227.06 274.518 242.484 274.508 257.905C274.508 258.373 274.364 258.841 274.287 259.309H259.228C259.25 259.152 259.289 258.992 259.289 258.835C259.289 244.692 259.321 230.546 259.273 216.404C259.257 211.659 255.777 208.31 250.994 208.278C246.191 208.246 241.388 208.262 236.582 208.272C230.882 208.281 227.71 211.486 227.707 217.227C227.704 230.569 227.707 243.913 227.697 257.255C227.697 257.941 227.569 258.623 227.502 259.309H212.443H212.449Z" fill="white"/>
<path d="M152.533 259.309C151.723 259.091 150.915 258.847 150.098 258.655C143.194 257.027 138.256 250.917 138.24 243.814C138.208 228.707 138.244 213.6 138.205 198.493C138.205 197.253 138.529 196.814 139.813 196.837C143.815 196.907 147.82 196.917 151.822 196.837C153.206 196.808 153.504 197.327 153.501 198.602C153.463 212.053 153.469 225.506 153.485 238.96C153.491 243.292 155.75 246.477 159.47 247.39C160.444 247.627 161.479 247.685 162.485 247.691C167.077 247.723 171.668 247.723 176.256 247.701C181.873 247.672 185.038 244.468 185.041 238.806C185.051 225.567 185.041 212.328 185.045 199.089C185.045 197.611 185.757 196.871 187.182 196.869C190.972 196.869 194.762 196.91 198.553 196.846C199.812 196.824 200.353 197.131 200.35 198.522C200.309 213.683 200.379 228.842 200.299 244.003C200.261 251.555 194.654 257.803 187.207 258.931C186.746 259.001 186.301 259.184 185.849 259.315H152.527L152.533 259.309Z" fill="white"/>
<path d="M376.497 259.309C376.442 258.62 376.343 257.931 376.343 257.242C376.333 237.871 376.336 218.499 376.336 199.131C376.336 197.621 377.087 196.864 378.589 196.862C383.017 196.853 387.448 196.84 391.876 196.83V259.309H376.497Z" fill="white"/>
<path d="M317.862 259.309C317.858 246.935 317.874 234.561 317.826 222.187C317.82 220.79 318.115 220.226 319.669 220.271C323.664 220.389 327.669 220.329 331.668 220.297C332.606 220.29 333.141 220.418 333.138 221.572C333.106 233.785 333.119 245.999 333.109 258.213C333.109 258.578 332.988 258.94 332.924 259.305H317.865L317.862 259.309Z" fill="white"/>
</svg>
